<?xml version="1.0" standalone="no"?>
<!DOCTYPE svg PUBLIC "-//W3C//DTD SVG 20010904//EN"
 "http://www.w3.org/TR/2001/REC-SVG-20010904/DTD/svg10.dtd">
<svg version="1.0" xmlns="http://www.w3.org/2000/svg" viewBox="0 0 300.000000 300.000000">
<g transform="translate(0.000000,300.000000) scale(0.100000,-0.100000)"
fill="#000000" stroke="none">
<path d="M518 2983 c-29 -33 -518 -911 -518 -930 0 -21 1456 -2031 1483 -2047
12 -8 22 -8 35 0 26 16 1482 2026 1482 2047 0 19 -489 897 -518 930 -14 16
-74 17 -982 17 -908 0 -968 -1 -982 -17z m858 -118 c-9 -13 -128 -178 -265
-365 l-250 -341 -91 278 c-50 153 -104 317 -120 366 l-29 87 386 0 385 0 -16
-25z m884 -331 c-66 -196 -121 -359 -124 -361 -3 -4 -462 615 -511 691 l-17
26 385 0 385 0 -118 -356z m-485 -54 l267 -365 -271 -3 c-149 -1 -393 -1 -542
0 l-271 3 268 367 c148 203 272 367 276 365 3 -1 126 -166 273 -367z m-1117
-25 c61 -187 110 -341 108 -342 -2 -2 -143 -2 -313 -1 l-311 3 196 348 c107
191 198 344 202 340 4 -4 57 -161 118 -348z m2007 3 l193 -343 -311 -3 c-170
-1 -312 0 -315 2 -4 4 213 668 225 689 3 5 7 6 10 4 2 -3 92 -160 198 -349z
m-1831 -535 c13 -43 133 -408 266 -811 133 -404 240 -735 238 -737 -3 -3
-1153 1579 -1171 1611 -7 12 39 14 317 14 l324 0 26 -77z m954 -793 c-159
-478 -293 -870 -297 -870 -6 0 -572 1716 -571 1733 0 4 261 7 579 7 l580 0
-291 -870z m1035 842 c-36 -57 -1187 -1641 -1190 -1638 -1 1 122 377 275 834
l277 832 328 0 329 0 -19 -28z"/>
</g>
</svg>
